<svg width="18" height="18" viewBox="0 0 18 18" fill="none" xmlns="http://www.w3.org/2000/svg">
<g clip-path="url(#clip0_347_989)">
<path d="M17.8242 9.20719C17.8242 8.59539 17.7746 7.98029 17.6688 7.37842H9.17969V10.8442H14.041C13.8393 11.9619 13.1911 12.9507 12.242 13.579V15.8278H15.1422C16.8453 14.2603 17.8242 11.9454 17.8242 9.20719Z" fill="#4285F4"/>
<path d="M9.18032 18.0005C11.6077 18.0005 13.6547 17.2035 15.1461 15.8278L12.2459 13.579C11.439 14.128 10.3973 14.4389 9.18363 14.4389C6.83566 14.4389 4.84484 12.8548 4.13053 10.7251H1.1377V13.0433C2.66553 16.0824 5.77742 18.0005 9.18032 18.0005Z" fill="#34A853"/>
<path d="M4.12659 10.725C3.74959 9.60727 3.74959 8.39691 4.12659 7.27914V4.96094H1.13706C-0.139438 7.50402 -0.139438 10.5002 1.13706 13.0432L4.12659 10.725Z" fill="#FBBC04"/>
<path d="M9.18032 3.56224C10.4634 3.5424 11.7036 4.02523 12.6328 4.9115L15.2024 2.34196C13.5753 0.814129 11.4159 -0.0258495 9.18032 0.000606499C5.77742 0.000606499 2.66553 1.91867 1.1377 4.96111L4.12722 7.27931C4.83823 5.1463 6.83235 3.56224 9.18032 3.56224Z" fill="#EA4335"/>
</g>
<defs>
<clipPath id="clip0_347_989">
<rect width="18" height="18" fill="white"/>
</clipPath>
</defs>
</svg>
