<svg width="28" height="28" viewBox="0 0 28 28" fill="none" xmlns="http://www.w3.org/2000/svg">
<path d="M3.11111 28C2.25556 28 1.52289 27.6956 0.913111 27.0869C0.30437 26.4771 0 25.7444 0 24.8889V3.11111C0 2.25556 0.30437 1.52289 0.913111 0.913111C1.52289 0.30437 2.25556 0 3.11111 0H15.5556C15.9963 0 16.366 0.148815 16.6647 0.446444C16.9623 0.745111 17.1111 1.11481 17.1111 1.55556C17.1111 1.9963 16.9623 2.36548 16.6647 2.66311C16.366 2.96178 15.9963 3.11111 15.5556 3.11111H3.11111V24.8889H24.8889V12.4444C24.8889 12.0037 25.0382 11.634 25.3369 11.3353C25.6345 11.0377 26.0037 10.8889 26.4444 10.8889C26.8852 10.8889 27.2544 11.0377 27.552 11.3353C27.8507 11.634 28 12.0037 28 12.4444V24.8889C28 25.7444 27.6956 26.4771 27.0869 27.0869C26.4771 27.6956 25.7444 28 24.8889 28H3.11111ZM23.3333 9.33333C22.8926 9.33333 22.5234 9.184 22.2258 8.88533C21.9271 8.5877 21.7778 8.21852 21.7778 7.77778V6.22222H20.2222C19.7815 6.22222 19.4123 6.07341 19.1147 5.77578C18.816 5.47711 18.6667 5.10741 18.6667 4.66667C18.6667 4.22593 18.816 3.85622 19.1147 3.55756C19.4123 3.25993 19.7815 3.11111 20.2222 3.11111H21.7778V1.55556C21.7778 1.11481 21.9271 0.745111 22.2258 0.446444C22.5234 0.148815 22.8926 0 23.3333 0C23.7741 0 24.1433 0.148815 24.4409 0.446444C24.7396 0.745111 24.8889 1.11481 24.8889 1.55556V3.11111H26.4444C26.8852 3.11111 27.2544 3.25993 27.552 3.55756C27.8507 3.85622 28 4.22593 28 4.66667C28 5.10741 27.8507 5.47711 27.552 5.77578C27.2544 6.07341 26.8852 6.22222 26.4444 6.22222H24.8889V7.77778C24.8889 8.21852 24.7396 8.5877 24.4409 8.88533C24.1433 9.184 23.7741 9.33333 23.3333 9.33333ZM6.22222 21.7778H21.7778C22.0889 21.7778 22.3222 21.6352 22.4778 21.35C22.6333 21.0648 22.6074 20.7926 22.4 20.5333L18.1222 14.8167C17.9667 14.6093 17.7593 14.5056 17.5 14.5056C17.2407 14.5056 17.0333 14.6093 16.8778 14.8167L12.8333 20.2222L9.95555 16.3722C9.8 16.1648 9.59259 16.0611 9.33333 16.0611C9.07407 16.0611 8.86667 16.1648 8.71111 16.3722L5.6 20.5333C5.39259 20.7926 5.36667 21.0648 5.52222 21.35C5.67778 21.6352 5.91111 21.7778 6.22222 21.7778ZM3.11111 12.4444V24.8889V3.11111V12.4444Z" fill="#D3D3D3"/>
</svg>
