<svg width="50" height="22" viewBox="0 0 50 22" fill="none" xmlns="http://www.w3.org/2000/svg">
  <path d="M44.1667 0.875H49.0909L36.7803 21.1875H31.8561L44.1667 0.875Z" fill="#FFACAC"/>
  <path d="M29.394 0.875H34.3182L22.0076 21.1875H17.0834L29.394 0.875Z" fill="#FFACAC"/>
  <path d="M7.54261 8.87689H12.4669L5.08049 21.1875H0.15625L7.54261 8.87689Z" fill="#FFACAC"/>
  <path d="M4.02455 16.8788H24.4697L22.0076 21.1875H0.15625L4.02455 16.8788Z" fill="#FFACAC"/>
  <path d="M10.3125 0.875H26.624L23.8541 5.18371H7.85034L10.3125 0.875Z" fill="#FFACAC"/>
  <path d="M3.7736 8.84375H19.1619L16.6997 13.1525H1.31152L3.7736 8.84375Z" fill="#FFACAC"/>
  <path d="M19.1619 8.84375H34.5502L32.088 13.1525H16.6998L19.1619 8.84375Z" fill="#FFACAC"/>
  <path d="M34.5502 8.84375H49.9385L47.4764 13.1525H32.0881L34.5502 8.84375Z" fill="#FFACAC"/>
</svg>
