<svg width="24" height="24" viewBox="0 0 24 24" fill="none" xmlns="http://www.w3.org/2000/svg">
<path d="M11.9896 13.6798C12.9175 13.6798 13.6696 12.9277 13.6696 11.9998C13.6696 11.072 12.9175 10.3198 11.9896 10.3198C11.0618 10.3198 10.3096 11.072 10.3096 11.9998C10.3096 12.9277 11.0618 13.6798 11.9896 13.6798Z" fill="#50555C"/>
<path d="M18.9798 13.6798C19.9077 13.6798 20.6598 12.9277 20.6598 11.9998C20.6598 11.072 19.9077 10.3198 18.9798 10.3198C18.052 10.3198 17.2998 11.072 17.2998 11.9998C17.2998 12.9277 18.052 13.6798 18.9798 13.6798Z" fill="#50555C"/>
<path d="M5.01984 13.6798C5.94768 13.6798 6.69984 12.9277 6.69984 11.9998C6.69984 11.072 5.94768 10.3198 5.01984 10.3198C4.09201 10.3198 3.33984 11.072 3.33984 11.9998C3.33984 12.9277 4.09201 13.6798 5.01984 13.6798Z" fill="#50555C"/>
</svg>
